
<svg xmlns="http://www.w3.org/2000/svg" version="1.2" baseProfile="tiny" viewBox="0.00 0.00 498.00 590.00">
<path fill="#ffffff" d="
  M 462.57 85.13
  C 460.23 84.27 456.95 84.29 455.11 83.97
  Q 447.28 82.64 439.42 81.47
  C 433.08 80.53 424.10 78.77 416.38 77.74
  C 408.47 76.68 400.57 74.96 392.46 74.27
  Q 390.25 74.09 388.09 73.50
  C 381.08 71.59 373.68 71.58 366.14 70.15
  C 358.87 68.78 352.38 68.47 344.23 66.85
  Q 339.84 65.98 334.70 65.33
  C 327.84 64.46 320.01 62.98 314.25 62.13
  Q 300.21 60.06 286.17 57.97
  C 280.08 57.07 269.82 55.01 261.50 54.22
  C 258.98 53.98 255.53 52.79 252.46 52.49
  C 244.28 51.69 235.33 49.91 228.17 48.90
  C 220.53 47.83 212.99 46.29 205.33 45.40
  C 198.58 44.62 193.43 43.28 187.44 42.42
  C 177.67 41.02 168.81 39.54 159.49 38.10
  C 155.65 37.51 148.74 36.91 143.60 35.49
  A 2.16 2.16 0.0 0 1 142.01 33.42
  L 141.87 3.00
  A 1.08 1.00 3.4 0 1 143.07 2.02
  C 147.61 2.50 151.95 2.78 156.54 3.72
  C 163.71 5.18 172.03 6.05 178.14 7.07
  Q 195.07 9.90 212.06 12.36
  C 221.26 13.69 231.80 15.54 241.72 16.90
  C 246.72 17.59 252.41 18.79 257.81 19.49
  C 264.94 20.41 272.15 22.09 279.00 22.69
  C 283.17 23.06 287.85 24.24 290.67 24.66
  C 305.05 26.77 319.49 28.79 333.80 31.33
  Q 340.49 32.52 347.21 33.47
  Q 364.17 35.87 381.09 38.55
  C 385.41 39.23 393.56 40.08 399.75 41.50
  C 403.58 42.39 409.78 42.51 414.66 43.49
  C 417.05 43.97 419.36 44.52 421.79 44.80
  C 432.06 45.96 445.36 48.31 452.40 49.36
  Q 472.67 52.39 492.93 55.61
  Q 495.20 55.97 495.20 58.27
  L 495.25 521.23
  Q 495.25 523.52 492.99 523.17
  L 465.31 518.94
  A 2.11 2.11 0.0 0 1 463.54 517.08
  Q 463.16 513.36 463.16 509.25
  Q 463.40 304.84 463.12 100.42
  C 463.11 96.29 463.36 90.91 463.28 86.13
  Q 463.27 85.38 462.57 85.13
  Z"
/>
<path fill="#ffffff" d="
  M 35.33 505.52
  C 41.23 507.44 48.53 508.01 53.55 508.80
  Q 71.97 511.69 90.41 514.45
  C 98.80 515.70 109.27 517.60 118.74 518.93
  C 125.90 519.93 134.02 521.49 141.73 522.42
  Q 145.68 522.90 151.21 523.96
  C 156.88 525.05 162.72 525.31 168.23 526.52
  Q 173.55 527.69 175.75 527.96
  C 192.87 530.06 209.03 532.78 225.63 535.29
  C 233.30 536.45 242.56 538.15 251.07 539.38
  C 256.30 540.14 264.73 541.70 271.62 542.52
  C 277.58 543.23 283.59 544.66 289.69 545.32
  C 296.43 546.06 303.02 547.66 309.82 548.32
  C 313.74 548.69 317.88 549.69 321.99 550.07
  Q 322.53 550.12 322.65 549.60
  Q 323.29 546.74 323.25 545.50
  Q 322.81 530.62 323.29 515.75
  Q 323.33 514.39 323.18 513.31
  A 1.15 1.14 89.7 0 0 322.19 512.33
  C 307.03 510.41 291.95 507.93 276.87 505.41
  C 270.73 504.39 264.50 503.72 258.40 502.65
  Q 250.81 501.31 243.15 500.38
  C 239.28 499.91 234.84 498.64 231.63 498.31
  Q 223.54 497.48 217.48 496.35
  Q 212.11 495.34 206.95 494.82
  C 201.03 494.23 194.45 492.75 189.48 492.04
  C 164.52 488.46 139.66 484.25 114.72 480.57
  C 109.04 479.73 100.23 478.02 92.87 477.25
  C 89.43 476.89 86.38 475.64 83.09 475.35
  Q 78.43 474.93 73.61 474.52
  A 1.98 1.97 -87.6 0 1 71.80 472.55
  L 71.77 135.34
  A 0.76 0.76 0.0 0 1 72.62 134.58
  C 77.56 135.19 82.34 135.71 87.39 136.73
  Q 93.92 138.05 100.50 139.08
  Q 101.64 139.26 103.59 140.06
  Q 104.06 140.25 104.16 140.75
  Q 104.61 143.12 104.60 145.50
  C 104.43 244.16 104.12 342.84 104.29 441.50
  Q 104.29 443.13 104.51 444.56
  Q 104.59 445.14 105.17 445.24
  C 126.45 449.12 147.97 452.35 169.39 455.37
  C 184.54 457.50 199.07 460.38 213.97 462.23
  C 220.94 463.09 227.52 464.51 234.70 465.38
  C 240.24 466.05 246.12 467.38 251.12 468.06
  Q 261.84 469.52 272.54 471.19
  Q 291.55 474.14 310.55 477.23
  C 317.93 478.42 328.46 479.73 337.37 481.40
  Q 340.67 482.02 350.50 482.97
  Q 351.84 483.10 354.14 484.16
  Q 354.59 484.37 354.78 484.84
  Q 355.30 486.11 355.30 487.50
  Q 355.26 536.44 355.25 586.88
  Q 355.25 587.88 354.34 588.28
  Q 353.45 588.68 351.75 588.52
  C 344.65 587.87 336.07 586.00 330.75 585.18
  Q 315.03 582.78 299.31 580.39
  C 294.52 579.66 285.55 577.95 278.55 577.25
  C 274.92 576.89 271.55 575.73 267.97 575.34
  C 259.39 574.42 248.21 572.44 242.42 571.59
  Q 207.92 566.50 173.47 561.09
  Q 169.40 560.45 158.75 558.50
  C 154.52 557.73 148.93 557.40 143.64 556.30
  Q 135.84 554.67 127.87 554.18
  C 125.89 554.06 122.95 553.05 120.69 552.70
  Q 103.60 550.05 86.48 547.62
  C 82.20 547.02 77.29 545.83 72.65 545.19
  Q 54.19 542.63 35.79 539.63
  Q 27.25 538.23 18.66 537.19
  C 14.21 536.64 9.06 535.22 4.11 534.81
  Q 2.01 534.64 2.01 532.53
  L 1.86 54.30
  A 1.55 1.54 -0.2 0 1 3.40 52.76
  C 5.02 52.75 6.67 52.75 8.32 53.09
  Q 16.18 54.70 24.13 55.78
  C 31.66 56.79 39.05 58.25 46.55 59.21
  Q 52.51 59.97 57.65 60.93
  C 64.77 62.25 70.36 62.53 76.45 63.66
  Q 82.36 64.76 84.11 64.97
  C 93.11 66.05 103.93 67.98 110.96 69.02
  C 134.35 72.46 155.31 76.02 177.51 79.22
  C 183.00 80.02 190.08 81.33 196.41 82.13
  Q 202.58 82.91 209.75 84.20
  C 215.67 85.27 221.81 85.91 227.55 86.94
  C 243.14 89.75 259.07 91.58 274.77 94.15
  C 289.76 96.60 304.90 98.65 319.92 101.18
  C 325.67 102.15 331.43 102.64 337.15 103.73
  C 344.49 105.12 352.60 105.93 359.26 107.07
  Q 375.85 109.91 392.51 112.21
  C 400.44 113.31 411.06 115.29 420.44 116.26
  C 421.84 116.41 423.44 117.07 424.77 117.50
  A 0.80 0.80 0.0 0 1 425.32 118.26
  L 425.27 455.68
  A 0.85 0.85 0.0 0 1 424.30 456.52
  Q 415.88 455.24 407.58 454.38
  C 403.16 453.93 398.82 452.61 394.43 451.86
  A 1.45 1.44 5.0 0 1 393.23 450.44
  L 393.15 147.43
  A 1.91 1.90 1.6 0 0 391.35 145.53
  C 382.45 145.05 371.56 142.78 365.21 141.88
  Q 357.71 140.82 350.24 139.57
  C 345.56 138.79 336.23 137.89 329.36 136.41
  C 322.61 134.96 315.87 134.81 309.10 133.34
  Q 304.83 132.41 301.33 132.14
  C 291.79 131.38 282.44 129.11 272.87 128.15
  C 269.94 127.85 266.21 126.82 263.04 126.40
  Q 252.99 125.04 242.99 123.36
  C 235.47 122.10 227.31 121.17 219.48 119.85
  C 213.67 118.86 205.53 117.94 198.64 116.60
  C 192.65 115.43 186.55 114.99 180.53 113.83
  Q 173.80 112.53 167.87 111.77
  Q 163.30 111.20 158.77 110.35
  C 143.01 107.39 126.92 105.86 111.12 103.04
  C 106.75 102.26 101.57 101.80 97.97 101.29
  C 87.23 99.75 76.09 98.68 65.50 96.41
  C 59.63 95.15 52.33 94.84 47.74 93.79
  Q 41.44 92.34 35.21 91.85
  A 0.89 0.89 0.0 0 0 34.25 92.76
  Q 34.46 100.88 34.46 109.00
  Q 34.53 291.62 34.52 474.25
  Q 34.52 488.66 34.08 503.75
  A 1.81 1.80 9.9 0 0 35.33 505.52
  Z"
/>
<path fill="#ffffff" d="
  M 355.31 179.58
  L 355.11 444.22
  A 1.60 1.60 0.0 0 1 353.27 445.80
  L 143.11 413.97
  A 1.60 1.60 0.0 0 1 141.75 412.38
  L 141.85 147.62
  A 1.60 1.60 0.0 0 1 143.69 146.04
  L 353.95 177.99
  A 1.60 1.60 0.0 0 1 355.31 179.58
  Z
  M 174.46 383.97
  A 0.96 0.96 0.0 0 0 175.28 384.91
  L 321.87 407.26
  A 0.96 0.96 0.0 0 0 322.97 406.31
  L 323.00 208.04
  A 0.96 0.96 0.0 0 0 322.18 207.09
  L 175.49 184.95
  A 0.96 0.96 0.0 0 0 174.39 185.90
  L 174.46 383.97
  Z"
/>
</svg>
